<svg xmlns="http://www.w3.org/2000/svg" xml:space="preserve" fill-rule="evenodd" stroke-linejoin="round" stroke-miterlimit="2" clip-rule="evenodd" viewBox="0 0 355 355">
  <path fill="#fff" fill-opacity=".8" fill-rule="nonzero" d="M271 127q-6-7-13 0-7 8 0 14a54 54 0 0 1 0 77 10 10 0 0 0 6 17q5 0 7-4c29-28 29-75 0-104"/>
  <path fill="#fff" fill-opacity=".5" fill-rule="nonzero" d="M311 93q-6-6-13 0t0 15c37 39 37 102 0 140q-7 6 0 14 7 5 13 0c45-46 45-121 0-169"/>
  <path fill="#fff" d="M199 104v4q-3 14-15 14H26q-15 0-16-14v-4q1-13 16-14h158q13 1 15 14m36 78v3q-1 15-17 16H28q-15-1-17-16v-3q2-16 17-17h190q16 1 17 17"/>
  <path fill="#fff" d="M235 182v3q-1 15-17 16H28q-15-1-17-16v-3q2-16 17-17h190q16 1 17 17m-86 77v3q-2 14-14 15H26q-15-1-16-15v-3q1-15 16-16h109q12 1 14 16"/>
  <path fill="#fff" d="M149 259v3q-2 14-14 15H26q-15-1-16-15v-3q1-15 16-16h109q12 1 14 16"/>
</svg>
